<?xml version="1.0" standalone="no"?>
<!DOCTYPE svg PUBLIC "-//W3C//DTD SVG 20010904//EN"
 "http://www.w3.org/TR/2001/REC-SVG-20010904/DTD/svg10.dtd">
<svg version="1.0" xmlns="http://www.w3.org/2000/svg"
 width="512.000000pt" height="512.000000pt" viewBox="0 0 512.000000 512.000000"
 preserveAspectRatio="xMidYMid meet">

<g transform="translate(0.000000,512.000000) scale(0.100000,-0.100000)"
fill="#000000" stroke="none">
<path d="M1538 5110 c-683 -31 -1018 -144 -1239 -417 -169 -210 -242 -457
-281 -953 -18 -234 -18 -2126 0 -2360 46 -578 147 -853 390 -1063 203 -177
452 -254 952 -298 71 -6 504 -13 997 -16 1342 -8 1680 13 2015 124 371 123
588 389 677 830 56 274 71 616 71 1603 0 952 -12 1264 -60 1545 -50 294 -144
498 -300 654 -205 205 -477 299 -995 342 -162 13 -1966 20 -2227 9z m-79
-1608 c49 -24 64 -50 125 -207 145 -379 317 -685 468 -837 68 -69 99 -85 143
-74 43 11 47 50 43 431 -5 399 -4 396 -89 512 -27 38 -52 78 -55 90 -8 29 15
75 46 90 31 16 644 19 685 3 53 -20 55 -42 55 -489 0 -468 2 -480 70 -481 73
0 220 156 374 398 33 53 110 196 171 317 143 287 110 267 443 263 l244 -3 25
-29 c21 -25 24 -36 19 -73 -15 -108 -125 -312 -362 -671 -84 -128 -161 -246
-169 -263 -28 -54 -13 -81 124 -223 330 -345 476 -546 476 -659 0 -56 -20 -79
-83 -97 -50 -14 -421 -13 -480 1 -43 11 -66 31 -267 235 -121 122 -245 241
-275 265 -117 90 -230 122 -281 80 -24 -19 -24 -21 -29 -266 l-5 -247 -28 -24
c-42 -36 -100 -47 -237 -47 -294 2 -572 117 -843 351 -306 265 -715 942 -848
1405 -37 126 -39 205 -6 234 12 11 29 23 37 26 8 3 119 6 245 6 200 1 234 -1
264 -17z"/>
</g>
</svg>
